/* XPM */
static char * quiver_icon_xpm[] = {
"43 42 548 2",
"  	c None",
". 	c #404040",
"+ 	c #424242",
"@ 	c #3F3F3F",
"# 	c #414141",
"$ 	c #3E3E3E",
"% 	c #474747",
"& 	c #868686",
"* 	c #626262",
"= 	c #444444",
"- 	c #696969",
"; 	c #FFFFFF",
"> 	c #FDFDFD",
", 	c #E2E2E2",
"' 	c #C0C0C0",
") 	c #9F9F9F",
"! 	c #7D7D7D",
"~ 	c #595959",
"{ 	c #8C8C8C",
"] 	c #F8F8F8",
"^ 	c #D9D9D9",
"/ 	c #B7B7B7",
"( 	c #959595",
"_ 	c #737373",
": 	c #505050",
"< 	c #ADADAD",
"[ 	c #F1F1F1",
"} 	c #CFCFCF",
"| 	c #CECECE",
"1 	c #D1D1D1",
"2 	c #BCBCBC",
"3 	c #DDDDDD",
"4 	c #FBFBFB",
"5 	c #FEFEFE",
"6 	c #E7E7E7",
"7 	c #C6C6C6",
"8 	c #A1A1A1",
"9 	c #EFEFEF",
"0 	c #484848",
"a 	c #434343",
"b 	c #606060",
"c 	c #818181",
"d 	c #A3A3A3",
"e 	c #C5C5C5",
"f 	c #E6E6E6",
"g 	c #E0E0E0",
"h 	c #4D4D4D",
"i 	c #383A42",
"j 	c #373A44",
"k 	c #3E3E41",
"l 	c #444445",
"m 	c #494949",
"n 	c #8B8B8B",
"o 	c #ACACAC",
"p 	c #BFBFBF",
"q 	c #717171",
"r 	c #3E3F42",
"s 	c #454545",
"t 	c #373750",
"u 	c #413E51",
"v 	c #413C4A",
"w 	c #3F3F4E",
"x 	c #3E414C",
"y 	c #474A50",
"z 	c #515151",
"A 	c #727272",
"B 	c #949494",
"C 	c #C8C8C8",
"D 	c #9E9E9E",
"E 	c #929292",
"F 	c #535353",
"G 	c #B3B3B3",
"H 	c #EEEEEE",
"I 	c #474748",
"J 	c #414049",
"K 	c #404058",
"L 	c #4C3F56",
"M 	c #3C425F",
"N 	c #3C415E",
"O 	c #424A6A",
"P 	c #404869",
"Q 	c #3C4968",
"R 	c #3A435A",
"S 	c #3E4557",
"T 	c #40424E",
"U 	c #46474A",
"V 	c #424243",
"W 	c #C7CBD2",
"X 	c #4F4F4F",
"Y 	c #666666",
"Z 	c #C1C1C1",
"` 	c #50475B",
" .	c #4C4D68",
"..	c #46485F",
"+.	c #4B4965",
"@.	c #444C67",
"#.	c #425174",
"$.	c #3F4767",
"%.	c #3D4968",
"&.	c #3A4366",
"*.	c #414567",
"=.	c #3E4665",
"-.	c #424856",
";.	c #A2A9BC",
">.	c #747474",
",.	c #E9E9E9",
"'.	c #564954",
").	c #59546A",
"!.	c #5F546B",
"~.	c #57526F",
"{.	c #4E4A67",
"].	c #464B69",
"^.	c #484B69",
"/.	c #44425E",
"(.	c #43435F",
"_.	c #515D80",
":.	c #4A4B68",
"<.	c #47454D",
"[.	c #434348",
"}.	c #F9F9F9",
"|.	c #838383",
"1.	c #DCDCDC",
"2.	c #858585",
"3.	c #464445",
"4.	c #655D71",
"5.	c #645971",
"6.	c #585065",
"7.	c #544E68",
"8.	c #584A63",
"9.	c #4F4D66",
"0.	c #514E66",
"a.	c #595E80",
"b.	c #4E4B68",
"c.	c #5A5C7E",
"d.	c #414142",
"e.	c #41414B",
"f.	c #DADADA",
"g.	c #919191",
"h.	c #DFDFDF",
"i.	c #8F8F8F",
"j.	c #BEBEBE",
"k.	c #776A72",
"l.	c #85778C",
"m.	c #826275",
"n.	c #6F5A6D",
"o.	c #695B71",
"p.	c #625A71",
"q.	c #5A536D",
"r.	c #594D68",
"s.	c #524760",
"t.	c #5B485C",
"u.	c #635962",
"v.	c #B9B9B9",
"w.	c #4A4A4A",
"x.	c #F0F0F0",
"y.	c #D2D2D2",
"z.	c #7A7A7A",
"A.	c #4C4C4C",
"B.	c #F7F7F7",
"C.	c #4E4D4E",
"D.	c #A492A1",
"E.	c #9E9FAB",
"F.	c #8C7484",
"G.	c #746474",
"H.	c #70586F",
"I.	c #674E63",
"J.	c #664E62",
"K.	c #5A485C",
"L.	c #5A4355",
"M.	c #8D8088",
"N.	c #989898",
"O.	c #6B6B6B",
"P.	c #464646",
"Q.	c #8C8A88",
"R.	c #9B938A",
"S.	c #A3A19D",
"T.	c #CDCDCD",
"U.	c #96807B",
"V.	c #C3918F",
"W.	c #B98B91",
"X.	c #C5A2A6",
"Y.	c #B49DA3",
"Z.	c #A79AA4",
"`.	c #8E6572",
" +	c #81566A",
".+	c #654951",
"++	c #B0979D",
"@+	c #767676",
"#+	c #5E5E5E",
"$+	c #FCFCFC",
"%+	c #5F5F5F",
"&+	c #9B9B9A",
"*+	c #DFD5C3",
"=+	c #EDDDC5",
"-+	c #D5C0A6",
";+	c #514F4C",
">+	c #4F4D4C",
",+	c #636363",
"'+	c #5F5A53",
")+	c #D5BB9C",
"!+	c #D1C1AA",
"~+	c #CDBBAE",
"{+	c #B4ADAC",
"]+	c #A6A2A8",
"^+	c #A0979C",
"/+	c #846775",
"(+	c #57464D",
"_+	c #414041",
":+	c #DDDDDE",
"<+	c #6C6C6C",
"[+	c #C7C7C7",
"}+	c #F5F5F5",
"|+	c #A9A9A9",
"1+	c #545454",
"2+	c #A8A8A8",
"3+	c #F3F1ED",
"4+	c #EDE0CB",
"5+	c #D3C1A6",
"6+	c #DECCAF",
"7+	c #E7D3B6",
"8+	c #998D7E",
"9+	c #B1ADA9",
"0+	c #BDBDBD",
"a+	c #393330",
"b+	c #433832",
"c+	c #262021",
"d+	c #6D534F",
"e+	c #6E4C4D",
"f+	c #B36F65",
"g+	c #885051",
"h+	c #443D3E",
"i+	c #433D3D",
"j+	c #676767",
"k+	c #D4D4D4",
"l+	c #9B9B9B",
"m+	c #5D5D5D",
"n+	c #B5B4B2",
"o+	c #F9F8F4",
"p+	c #EDDEC8",
"q+	c #E8D4B9",
"r+	c #DCCBAD",
"s+	c #EFD9B7",
"t+	c #AE9D84",
"u+	c #464544",
"v+	c #53514F",
"w+	c #343434",
"x+	c #151516",
"y+	c #0F0F0F",
"z+	c #121212",
"A+	c #1B1A1B",
"B+	c #111110",
"C+	c #100F0F",
"D+	c #2D2D2D",
"E+	c #656565",
"F+	c #E5E5E5",
"G+	c #8E8E8E",
"H+	c #BDB6AB",
"I+	c #F3E7D1",
"J+	c #FCFAF3",
"K+	c #FEFEFD",
"L+	c #F9F2E7",
"M+	c #FBEFDC",
"N+	c #CABCA4",
"O+	c #C1AB8A",
"P+	c #A49179",
"Q+	c #9C8C72",
"R+	c #726759",
"S+	c #1B1D1D",
"T+	c #171717",
"U+	c #161617",
"V+	c #151618",
"W+	c #101112",
"X+	c #19191C",
"Y+	c #808080",
"Z+	c #73716F",
"`+	c #C6BDB0",
" @	c #ECD5B4",
".@	c #F3E0C4",
"+@	c #ECDABC",
"@@	c #F3E1C3",
"#@	c #EEE1C2",
"$@	c #E9D9BD",
"%@	c #EBDCBF",
"&@	c #C3AD8B",
"*@	c #BCA483",
"=@	c #B29B7A",
"-@	c #CCB086",
";@	c #C3B188",
">@	c #A59370",
",@	c #434241",
"'@	c #615F5C",
")@	c #0F100F",
"!@	c #0E0E0E",
"~@	c #111111",
"{@	c #0D0E0E",
"]@	c #202020",
"^@	c #7D7B78",
"/@	c #AEA18F",
"(@	c #CCB590",
"_@	c #CBB690",
":@	c #D6C19D",
"<@	c #DFC7A3",
"[@	c #E8D2AA",
"}@	c #EED6AC",
"|@	c #D2BB97",
"1@	c #CCBCA0",
"2@	c #CEB189",
"3@	c #D3B489",
"4@	c #E6CA9D",
"5@	c #DCBF90",
"6@	c #CFB486",
"7@	c #A58D69",
"8@	c #99876B",
"9@	c #504B44",
"0@	c #9D9D9D",
"a@	c #0B0B0B",
"b@	c #0C0D0C",
"c@	c #0A0A0A",
"d@	c #232324",
"e@	c #7D7D7E",
"f@	c #707070",
"g@	c #434342",
"h@	c #95836B",
"i@	c #BDA683",
"j@	c #C6AB88",
"k@	c #D9C196",
"l@	c #E3CBA7",
"m@	c #D8C094",
"n@	c #CEB58A",
"o@	c #C2A981",
"p@	c #C4A97F",
"q@	c #CFAF81",
"r@	c #E8CB9A",
"s@	c #F6DFB5",
"t@	c #E5C28B",
"u@	c #D8AE79",
"v@	c #BBA080",
"w@	c #96846F",
"x@	c #6F6652",
"y@	c #5B5345",
"z@	c #666461",
"A@	c #2D2D2F",
"B@	c #131416",
"C@	c #111415",
"D@	c #101012",
"E@	c #2E2E2E",
"F@	c #888888",
"G@	c #756A5B",
"H@	c #CBAF87",
"I@	c #C9B08A",
"J@	c #C6AD88",
"K@	c #C7B088",
"L@	c #AC9574",
"M@	c #B59A75",
"N@	c #E0C08B",
"O@	c #F0D29D",
"P@	c #F3DAAA",
"Q@	c #F5CD89",
"R@	c #F2D6A3",
"S@	c #D6BA94",
"T@	c #DAC09E",
"U@	c #9D8C74",
"V@	c #7E7260",
"W@	c #6E6048",
"X@	c #645943",
"Y@	c #47453F",
"Z@	c #8D8D8D",
"`@	c #242424",
" #	c #1A1B1B",
".#	c #383939",
"+#	c #353535",
"@#	c #ECECEC",
"##	c #656462",
"$#	c #474543",
"%#	c #A18E6D",
"&#	c #9B8869",
"*#	c #8D7D62",
"=#	c #A18864",
"-#	c #C5A676",
";#	c #DFB67D",
">#	c #E6BD81",
",#	c #C1A473",
"'#	c #D3AC75",
")#	c #CBA570",
"!#	c #B3956B",
"~#	c #C7B89F",
"{#	c #A39078",
"]#	c #5D5647",
"^#	c #695D4C",
"/#	c #685D47",
"(#	c #615741",
"_#	c #504A3C",
":#	c #6A6A66",
"<#	c #E3E3E3",
"[#	c #2A2B2B",
"}#	c #C2C2C2",
"|#	c #5D5546",
"1#	c #816F53",
"2#	c #A1855E",
"3#	c #B8976A",
"4#	c #BA9969",
"5#	c #AC8D61",
"6#	c #8A7754",
"7#	c #957B55",
"8#	c #8F7854",
"9#	c #7D6F55",
"0#	c #86785D",
"a#	c #535043",
"b#	c #595645",
"c#	c #615E4D",
"d#	c #6C5E48",
"e#	c #685B44",
"f#	c #57503A",
"g#	c #4F4834",
"h#	c #41403C",
"i#	c #40403F",
"j#	c #F2F2F2",
"k#	c #525252",
"l#	c #504F4E",
"m#	c #474540",
"n#	c #89724F",
"o#	c #7B6D4D",
"p#	c #7D6B4D",
"q#	c #726342",
"r#	c #846C48",
"s#	c #7F6C4B",
"t#	c #7F6D4C",
"u#	c #857557",
"v#	c #786A54",
"w#	c #726954",
"x#	c #716754",
"y#	c #534E42",
"z#	c #5C5647",
"A#	c #756247",
"B#	c #64583F",
"C#	c #544C37",
"D#	c #494231",
"E#	c #3E3B30",
"F#	c #888988",
"G#	c #D5D5D5",
"H#	c #B6B6B6",
"I#	c #403D33",
"J#	c #4D4733",
"K#	c #5D5036",
"L#	c #66583C",
"M#	c #705D3F",
"N#	c #796646",
"O#	c #846F4E",
"P#	c #8E7B5C",
"Q#	c #776650",
"R#	c #5F5641",
"S#	c #3A362A",
"T#	c #3A3B2F",
"U#	c #5F563F",
"V#	c #6D5C40",
"W#	c #5B5137",
"X#	c #4E4533",
"Y#	c #433B2E",
"Z#	c #373527",
"`#	c #3E3E3D",
" $	c #6D6D6D",
".$	c #474746",
"+$	c #3E3D3A",
"@$	c #524630",
"#$	c #5A4C33",
"$$	c #61533A",
"%$	c #66553A",
"&$	c #695C46",
"*$	c #5B503C",
"=$	c #4D4334",
"-$	c #383329",
";$	c #2C2B23",
">$	c #282A23",
",$	c #8B7752",
"'$	c #7B6B49",
")$	c #615239",
"!$	c #4A4330",
"~$	c #3E3B31",
"{$	c #4D4D4C",
"]$	c #BABABA",
"^$	c #2D2C26",
"/$	c #29271F",
"($	c #383228",
"_$	c #504531",
":$	c #4F4735",
"<$	c #776F52",
"[$	c #38362A",
"}$	c #2B2A22",
"|$	c #1C1D18",
"1$	c #1A1C18",
"2$	c #4B422F",
"3$	c #9B8358",
"4$	c #7A6745",
"5$	c #4D493C",
"6$	c #4A4A49",
"7$	c #A7A7A7",
"8$	c #5B5B5B",
"9$	c #353433",
"0$	c #1A1A14",
"a$	c #171714",
"b$	c #181916",
"c$	c #1A1A16",
"d$	c #21211C",
"e$	c #28271F",
"f$	c #161715",
"g$	c #26251D",
"h$	c #625338",
"i$	c #544D3E",
"j$	c #464545",
"k$	c #B5B5B5",
"l$	c #B4B4B4",
"m$	c #CBCBCB",
"n$	c #939393",
"o$	c #1C1C19",
"p$	c #161613",
"q$	c #151613",
"r$	c #151513",
"s$	c #10110E",
"t$	c #141614",
"u$	c #1C1D1B",
"v$	c #51504B",
"w$	c #E8E8E8",
"x$	c #2B2B2C",
"y$	c #13130F",
"z$	c #1B1C16",
"A$	c #1D1D16",
"B$	c #181814",
"C$	c #1C1E1B",
"D$	c #777777",
"E$	c #D0D0D0",
"F$	c #6E6E6E",
"G$	c #0D0D0C",
"H$	c #0F100C",
"I$	c #22221F",
"J$	c #E4E4E4",
"K$	c #DBDBDB",
"L$	c #333332",
"M$	c #424241",
"N$	c #D8D8D8",
"O$	c #7E7E7E",
"P$	c #646464",
"Q$	c #6F6F6F",
"R$	c #616161",
"S$	c #AFAFAF",
"T$	c #565656",
"U$	c #A4A4A4",
"V$	c #FAFAFA",
"W$	c #9C9C9C",
"                                . . + @ @ # .                                         ",
"                                $ % & * = . . # + @ @ $                               ",
"                                @ - ; ; > , ' ) ! ~ . . . # # @ @ $                   ",
"                                + { ; ; ; ; ; ; ; ; ] ^ / ( _ : . . . + . @ . @       ",
"                              @ . < ; ; ; ; ; ; ; ; ; ; ; ; ; ; [ } < { - % . . . + # ",
"                              @ . | ; 1 2 3 4 ; ; ; ; ; ; ; ; ; ; ; ; ; ; 5 6 7 8 . @ ",
"                              $ . 9 5 0 . . a b c d e f 5 ; ; ; ; ; ; ; ; ; ; ; g . . ",
"                              $ h ; 6 . i j k k l . . . m - n o | 9 ; ; ; ; ; ; p .   ",
"                              . q ; 7 @ r . s . t u v w x y + . . . z A B C ; ; D #   ",
"                              + E 2 F . ~ G H I J K L M N O P Q R S T U . V W ; ! #   ",
"                            . . X . Y Z 5 ; ; ( # `  ...+.@.#.$.%.&.*.=.-.. ;.; ~ @   ",
"                        $ @ + . >.| ; ; ; ; ; ,.+ '.).!.~.{.].^./.(._.:.<.[.; }.# @   ",
"                    $ @ # # |.1.; ; ; ; ; ; ; ; 2.3.4.5.6.7.8.9.0.a.b.c.d.e.; f.. @   ",
"                # $ . s g.6 ; ; ; ; ; ; h.i.j.; 3 . k.l.m.n.o.p.q.r.s.t.. u.; v..     ",
"            @ . . w.D x.; ; ; ; ; ; y.z.# . A.B.; >.C.D.E.F.G.H.I.J.K.L.. M.; N.+     ",
"        @ # . F o B.; ; ; ; ; 5 e O.. P.Q.R.. S.; T.. U.V.W.X.Y.Z.`. +.+. ++; @+#     ",
"    @ # . #+v.$+; ; ; ; ; 4 / %+. A.&+*+=+-+;+>+> ; ,+'+)+!+~+{+]+^+/+(+_+:+; F @     ",
". a . <+[+5 ; ; ; ; ; }+|+1+. F 2+3+4+5+6+7+8+. 9+; 0+. a+b+c+d+e+f+g+h+i+; }+. @     ",
". j+k+; ; ; ; ; ; 9 l+A.. m+n+o+; ; p+q+r+s+t+u+v+; > 1+w+x+y+z+A+B+C+$ D+; k+. @     ",
"+ E+; ; ; ; ; F+G+P.. - H+I+J+K+; L+M+N+O+P+Q+R+. T.; < . S+T+U+V+W+X+. s ; G .       ",
"# . } ; ; 3 Y+# . Z+`+ @.@+@@@#@$@%@&@*@=@-@;@>@,@'@; B.w.D+)@!@~@{@]@. A ; E +       ",
"  + @+; ; * + ^@/@(@_@:@<@[@}@|@1@2@3@4@5@6@7@8@9@. 1.; 0@. ~@a@b@c@d@. e@; f@.       ",
"  . # h.; z.g@h@i@j@k@l@m@n@o@p@q@r@s@t@u@v@w@x@y@. z@; 9 = A@B@C@D@E@$ Z ; h @       ",
"    # F@; y.. G@H@I@J@K@L@M@N@O@P@Q@R@S@T@U@V@W@X@Y@. ,.; Z@+ D+`@ #.#+#; 9 . .       ",
"    @ + @#; ##$#%#&#*#=#-#;#>#,#'#)#!#~#{#]#^#/#(#_#. :#; <#. + . . . [#; | . .       ",
"      # N.; }#. |#1#2#3#4#5#6#7#8#9#0#a#b#c#d#e#f#g#h#i#j#; ! k#<#e |+f ; < .         ",
"      $ 0 }+5 l#m#n#o#p#q#r#s#t#u#v#w#x#y#z#A#B#C#D#E#. F#; G#. H#; ; ; ; { +         ",
"      . . |+; G . I#J#K#L#M#N#O#P#Q#R#S#T#U#V#W#X#Y#Z#`#0 4 ;  $%+5 ; ; ; - @         ",
"        # F 4 }..$+$@$#$$$%$N#&$*$=$-$;$>$,$'$)$!$~${$. %+; ; e . 0+; ; ; % .         ",
"        $ . ]$; d . ^$/$($_$:$<$[$}$|$1$2$3$4$5$6$. F 7$}+; ; 5 8$# F @+g.. .         ",
"          + %+; j#a 9$0$a$b$c$d$e$c$f$g$h$i$j$. m+k$4 ; ; ; ; ; l$. @ # # .           ",
"          @ . m$; n$. o$p$q$r$c$s$t$u$v$+ . - }#5 ; ; ; ; ; }+2+z . $                 ",
"            + q ; w$. x$y$z$A$B$C$= # . D$E$; ; ; ; ; ; H l+m . . #                   ",
"            . . f.; F$@ G$H$I$a . a |.3 ; ; ; ; ; ; J$Z@= # @                         ",
"              + |.; K$. L$M$. % g.6 ; ; ; ; ; ; N$O$. # @                             ",
"              . + ,.; P$. h D x.; ; ; ; ; ; m$Q$. + .                                 ",
"                # B ; w$v.B.; ; ; ; ; > 2 R$. # $                                     ",
"                @ P.j#; ; ; ; ; ; ] S$T$. a .                                         ",
"                  . U$; ; ; ; j#8 A.. # .                                             ",
"                  . X V$; ,.n$P.. . #                                                 ",
"                  + . W$2.+ # @                                                       ",
"                    . . # @                                                           "};
