/* XPM */
static char * quiver_slideshow_24_xpm[] = {
"24 24 158 2",
"  	c None",
". 	c #000000",
"+ 	c #E8E8E8",
"@ 	c #EAEAEA",
"# 	c #EBEBEB",
"$ 	c #ECECEC",
"% 	c #EDEDED",
"& 	c #EFEFEF",
"* 	c #F0F0F0",
"= 	c #F1F1F1",
"- 	c #F2F2F2",
"; 	c #F3F3F3",
"> 	c #F5F5F5",
", 	c #F6F6F6",
"' 	c #F7F7F7",
") 	c #F8F8F8",
"! 	c #FAFAFA",
"~ 	c #FBFBFB",
"{ 	c #FCFCFC",
"] 	c #FDFDFD",
"^ 	c #FFFFFF",
"/ 	c #E2E2E2",
"( 	c #CDCDCD",
"_ 	c #9E8B6F",
": 	c #B59F7F",
"< 	c #CAB28F",
"[ 	c #DFC9A5",
"} 	c #F0DCBB",
"| 	c #F7EAD3",
"1 	c #FDFBF7",
"2 	c #FFFFFE",
"3 	c #F3E9D9",
"4 	c #E4D3BC",
"5 	c #DECDB5",
"6 	c #C7B8A1",
"7 	c #F4F4F4",
"8 	c #BABABA",
"9 	c #E9E9E9",
"0 	c #A79170",
"a 	c #C3AA83",
"b 	c #D2B990",
"c 	c #DBC39A",
"d 	c #DFC9A2",
"e 	c #EFDDBD",
"f 	c #F1E6D1",
"g 	c #F6EEE0",
"h 	c #EDDEC4",
"i 	c #DFCBAD",
"j 	c #E3CFB3",
"k 	c #B6A68E",
"l 	c #72644A",
"m 	c #8A775A",
"n 	c #9E8867",
"o 	c #AF9673",
"p 	c #BDA27B",
"q 	c #C9AD83",
"r 	c #D0B58D",
"s 	c #C8AE88",
"t 	c #BFA683",
"u 	c #B39D7F",
"v 	c #A39279",
"w 	c #988A74",
"x 	c #60543C",
"y 	c #7E6C4C",
"z 	c #A1875E",
"A 	c #BD9D6D",
"B 	c #D3B079",
"C 	c #E7C389",
"D 	c #F4D69F",
"E 	c #F0D4A2",
"F 	c #E1C18D",
"G 	c #C9AD80",
"H 	c #BBA17A",
"I 	c #A4906F",
"J 	c #F9F9F9",
"K 	c #EEEEEE",
"L 	c #353124",
"M 	c #554A34",
"N 	c #66573D",
"O 	c #7B6747",
"P 	c #87724F",
"Q 	c #957C57",
"R 	c #BB9E71",
"S 	c #D3B992",
"T 	c #BDA381",
"U 	c #9F8D74",
"V 	c #776C57",
"W 	c #615847",
"X 	c #171713",
"Y 	c #302D22",
"Z 	c #5F5139",
"` 	c #766446",
" .	c #847051",
"..	c #7C6D53",
"+.	c #6B624E",
"@.	c #6E6653",
"#.	c #6F6756",
"$.	c #73664F",
"%.	c #645945",
"&.	c #57503F",
"*.	c #0C0C0B",
"=.	c #181814",
"-.	c #23221C",
";.	c #574C38",
">.	c #4C4434",
",.	c #504836",
"'.	c #494335",
").	c #4A483B",
"!.	c #6A5E47",
"~.	c #655941",
"{.	c #59503C",
"].	c #4A4635",
"^.	c #FEFEFE",
"/.	c #0C0C0A",
"(.	c #161612",
"_.	c #191915",
":.	c #1C1C18",
"<.	c #22211B",
"[.	c #1D1D19",
"}.	c #282720",
"|.	c #78684A",
"1.	c #6C5D41",
"2.	c #554C37",
"3.	c #484231",
"4.	c #3B392C",
"5.	c #11100D",
"6.	c #0E0E0C",
"7.	c #161713",
"8.	c #131412",
"9.	c #141513",
"0.	c #2B271D",
"a.	c #605236",
"b.	c #7F6C49",
"c.	c #5E5238",
"d.	c #463F2E",
"e.	c #383528",
"f.	c #2E2E24",
"g.	c #585858",
"h.	c #444444",
"i.	c #565656",
"j.	c #363636",
"k.	c #626262",
"l.	c #4E4E4E",
"m.	c #4C4C4C",
"n.	c #5D5D5D",
"o.	c #666666",
"p.	c #656565",
"q.	c #696969",
"r.	c #5E5E5E",
"s.	c #4F4F4F",
"t.	c #7B7B7B",
"u.	c #3D3D3D",
"v.	c #767676",
"w.	c #7D7D7D",
"x.	c #5A5A5A",
"y.	c #A0A0A0",
"z.	c #848484",
"A.	c #929292",
"                                                ",
"    . . . . . . . . . . . . . . . . . . . .     ",
"  . + + @ # $ % & * = - ; > , ' ) ! ~ { ] ^ .   ",
"  . . . . . . . . . . . . . . . . . . . . . .   ",
"    . ^ / / / / / / / / / / / / / / / / ( .     ",
"    . / + + _ : < [ } | 1 2 3 4 5 6 7 > 8 .     ",
"    . / + 9 0 a b c d e f g h i j k > , 8 .     ",
"    . / 9 @ l m n o p q r s t u v w ' ) 8 .     ",
"    . / # $ x y z A B C D E F G H I J ! 8 .     ",
"    . / % K L M N O P Q R S T U V W ! ~ 8 .     ",
"    . / K & X Y Z `  ...+.@.#.$.%.&.{ ] 8 .     ",
"    . / * = *.=.-.;.>.,.'.).!.~.{.].^.^ 8 .     ",
"    . / - ; /.(._.:.<.[.}.|.1.2.3.4.^ ^ 8 .     ",
"    . / ; 7 5.6.7.8.9.0.a.b.c.d.e.f.^ ^ 8 .     ",
"    . / > , ' ) J ! ~ { ] ^.^ ^ ^ ^ ^ ^ 8 .     ",
"    . ( 8 8 8 8 8 8 8 8 8 8 8 8 8 8 8 8 8 .     ",
"      . . . . . . . . . . . . . . . . . .       ",
"                      g.h.                      ",
"                      i.j.                      ",
"                    k.l.m.n.                    ",
"                  o.h.p.q.r.s.                  ",
"                t.u.v.    w.o.x.y.              ",
"              . . z.        A.. .               ",
"                                                "};
